<?xml version="1.0" standalone="no"?>
<!DOCTYPE svg PUBLIC "-//W3C//DTD SVG 20010904//EN"
 "http://www.w3.org/TR/2001/REC-SVG-20010904/DTD/svg10.dtd">
<svg version="1.0" xmlns="http://www.w3.org/2000/svg"
 width="1024.000000pt" height="1024.000000pt" viewBox="0 0 1024.000000 1024.000000"
 preserveAspectRatio="xMidYMid meet">

<g transform="translate(0.000000,1024.000000) scale(0.100000,-0.100000)"
fill="#000000" stroke="none">
<path d="M4540 9910 c-30 -4 -75 -13 -100 -19 -67 -18 -240 -83 -240 -90 0 -4
16 -13 37 -20 44 -16 37 -21 -72 -51 -44 -11 -165 -55 -270 -97 -104 -41 -203
-77 -220 -80 -16 -3 -58 2 -91 11 -80 21 -130 20 -179 -3 -54 -25 -98 -74
-132 -146 -26 -55 -28 -69 -28 -180 0 -99 4 -132 23 -187 l23 -67 -109 -108
c-149 -149 -256 -313 -341 -525 -39 -98 -104 -234 -136 -285 l-26 -43 28 1
c15 0 67 10 116 23 48 12 87 20 87 18 0 -2 -49 -66 -108 -141 -148 -186 -187
-240 -232 -324 -81 -153 -113 -295 -108 -472 l3 -111 -83 -99 c-269 -322 -450
-719 -546 -1200 -42 -206 -60 -409 -54 -587 l5 -133 -88 -111 c-265 -333 -383
-639 -378 -983 l1 -126 -318 0 -319 0 2 -95 c2 -126 21 -625 33 -875 5 -110
17 -364 25 -565 8 -201 18 -400 21 -442 l7 -78 469 0 469 0 17 -31 c26 -48
159 -238 232 -331 84 -108 352 -375 458 -458 231 -181 520 -327 864 -439 584
-189 1271 -283 1968 -268 1005 22 1862 238 2425 613 277 184 604 520 797 819
l58 90 458 5 457 5 7 170 c3 94 11 276 17 405 6 129 20 438 31 685 11 248 24
524 29 615 6 90 7 168 5 172 -3 4 -170 8 -372 8 l-368 0 -16 148 c-37 321
-138 604 -314 879 l-52 81 0 144 c-1 158 -11 239 -47 373 -91 338 -291 605
-577 776 -32 18 -58 40 -58 49 0 28 -97 238 -170 366 -88 156 -186 302 -299
448 -108 140 -400 432 -510 511 -46 33 -94 69 -108 80 l-24 20 25 75 c35 107
50 201 43 288 -5 67 -3 83 21 136 23 53 26 75 26 161 1 87 -4 117 -38 229 -21
70 -45 144 -53 164 -23 55 -72 110 -143 160 -108 76 -102 62 -64 150 45 105
66 230 53 314 -18 112 -76 205 -153 245 -46 24 -135 28 -213 9 l-68 -17 -106
51 c-245 117 -674 220 -915 220 -25 0 -110 15 -188 34 -160 39 -227 47 -306
36z m265 -156 c100 -28 260 -105 345 -165 128 -89 162 -111 167 -105 8 8 -34
61 -109 138 -64 65 -66 68 -42 74 31 8 93 -1 224 -33 150 -36 217 -69 270
-132 64 -76 85 -84 49 -18 -16 28 -29 55 -29 60 -1 28 154 -48 200 -99 42 -46
84 -113 77 -120 -10 -11 -173 20 -210 39 -42 22 -125 26 -229 12 -38 -5 -74
-3 -105 5 -57 15 -191 23 -177 11 5 -4 47 -21 94 -37 81 -28 93 -29 260 -29
169 0 177 -1 230 -27 30 -14 111 -44 178 -64 155 -48 199 -81 231 -176 21 -62
28 -128 14 -128 -5 0 -23 9 -40 20 -25 15 -33 27 -33 49 0 16 -8 38 -17 50
-17 21 -20 21 -58 7 -22 -7 -53 -21 -70 -30 -68 -36 -133 -15 -175 58 -29 53
-50 74 -108 115 -46 31 -50 21 -7 -17 45 -41 65 -73 75 -117 6 -28 5 -37 -9
-44 -22 -12 -139 -31 -189 -31 -40 0 -41 1 -32 26 13 34 12 80 -2 129 l-12 40
-7 -57 c-16 -137 -94 -160 -244 -72 -33 20 -100 50 -150 67 -84 30 -99 31
-235 32 -144 0 -146 0 -215 -33 -70 -33 -109 -62 -126 -94 -8 -15 -5 -15 33 2
24 10 63 21 88 25 l45 7 -47 -31 c-41 -28 -77 -67 -102 -109 -7 -12 -5 -12 14
0 12 7 32 19 44 25 11 7 44 13 71 13 58 0 107 -23 184 -87 42 -34 61 -43 108
-49 32 -4 79 -3 105 3 47 9 48 9 30 -10 -25 -29 -162 -117 -181 -117 -9 0 -23
-5 -31 -11 -11 -8 0 -9 40 -6 43 4 85 20 188 73 l132 68 107 4 c91 3 122 0
201 -21 60 -16 92 -20 92 -13 0 14 -53 50 -104 71 l-40 17 51 29 c142 82 397
54 612 -68 99 -56 181 -126 166 -142 -5 -5 -39 -14 -74 -20 -67 -11 -136 -5
-275 24 -39 8 -88 15 -109 15 -70 0 -127 -46 -127 -103 0 -58 35 -88 156 -131
81 -29 109 -33 80 -11 -27 21 -49 66 -37 78 31 31 108 -61 137 -161 20 -68 13
-93 -41 -151 -84 -90 -202 -129 -416 -138 -160 -7 -314 14 -394 52 -50 25
-155 109 -155 125 0 5 71 7 165 4 113 -4 165 -2 165 5 0 6 -6 11 -14 11 -7 0
-68 23 -135 50 -95 40 -135 51 -182 53 -32 1 -59 4 -59 8 0 4 25 20 55 35 51
24 63 26 138 21 51 -3 108 -14 150 -30 37 -13 67 -22 67 -18 0 3 -31 27 -68
53 -64 44 -169 88 -209 88 -30 0 -121 -52 -245 -141 -93 -67 -285 -189 -397
-253 -44 -25 14 18 90 67 73 46 91 64 120 113 18 33 55 80 82 107 57 55 53 60
-12 14 -115 -83 -285 -132 -353 -104 -56 23 -72 70 -65 189 l5 98 -22 -32
c-12 -18 -45 -73 -75 -123 -29 -49 -81 -128 -115 -175 -78 -107 -80 -111 -64
-106 7 2 36 10 63 17 28 7 55 18 60 24 13 15 65 37 65 27 0 -23 -25 -91 -46
-124 -13 -21 -23 -38 -20 -38 32 0 161 69 225 122 19 15 36 26 38 24 2 -2 -14
-34 -36 -71 -22 -38 -38 -72 -36 -76 3 -4 -9 -22 -26 -40 -51 -55 -75 -90
-112 -164 -35 -70 -114 -312 -104 -321 2 -3 33 39 67 93 122 190 229 313 319
366 45 26 38 14 -10 -18 -92 -60 -191 -172 -182 -205 4 -12 3 -12 -5 -2 -8 11
-10 11 -15 -1 -4 -10 0 -14 11 -13 9 2 18 8 20 14 2 7 11 12 20 12 10 0 13 -3
7 -8 -5 -4 -11 -13 -13 -19 -4 -23 15 -14 41 20 14 17 61 68 104 113 81 83 74
69 -9 -21 -77 -83 -133 -160 -157 -215 -61 -142 -81 -312 -61 -528 10 -112 10
-156 0 -227 l-13 -89 -64 199 c-35 110 -66 206 -69 214 -2 8 -6 12 -8 10 -2
-2 -9 -92 -16 -199 -22 -352 -60 -469 -199 -605 -28 -27 -51 -47 -51 -43 0 3
12 36 26 74 64 171 84 344 60 526 -28 208 -36 350 -26 457 5 55 12 112 16 126
24 97 -90 -119 -125 -236 -29 -97 -44 -216 -40 -313 2 -47 1 -86 -2 -86 -13 0
-70 152 -93 250 -22 93 -20 266 3 361 41 161 105 292 199 407 19 23 32 42 29
42 -4 0 -41 -23 -84 -52 -164 -110 -298 -279 -337 -429 -11 -44 -15 -50 -22
-34 -15 35 -9 225 10 294 43 157 113 252 348 468 92 85 168 156 168 158 0 10
-140 -45 -235 -92 -27 -14 -99 -57 -158 -96 -59 -38 -109 -68 -111 -66 -2 2
15 46 38 97 84 189 187 288 469 450 112 64 180 111 220 150 57 56 80 91 32 50
-25 -22 -295 -157 -295 -148 0 3 20 42 45 88 95 177 218 299 343 341 26 9 49
20 52 25 3 5 -53 34 -124 64 l-128 56 108 18 c73 12 132 16 179 12 83 -8 79 2
-16 39 -76 30 -215 57 -303 58 -75 1 -156 14 -136 21 174 68 239 85 358 98
123 13 217 0 305 -43 37 -18 67 -32 67 -30 0 10 -168 178 -195 195 l-30 20 75
-6 c41 -3 116 -17 165 -32z m1457 -305 c33 -18 58 -86 58 -164 l-1 -70 -29 61
c-23 48 -41 69 -82 97 -29 19 -64 39 -78 43 -24 7 -24 8 15 25 46 21 87 24
117 8z m-2567 -43 c252 -50 383 -94 448 -152 l29 -24 -68 -105 -68 -104 -32
48 c-42 61 -81 94 -163 136 -77 38 -152 62 -236 75 -33 5 -75 12 -94 16 l-34
7 6 -74 c9 -109 33 -176 86 -243 75 -96 141 -164 187 -193 24 -16 44 -32 44
-37 0 -5 -29 -6 -66 -3 -126 12 -226 89 -293 228 -47 99 -66 195 -57 285 8 80
20 111 54 147 32 34 48 34 257 -7z m-15 -228 c0 -13 -5 -9 -31 19 l-24 26 27
-19 c15 -10 28 -22 28 -26z m1437 -170 c31 -13 58 -28 60 -35 7 -19 -72 -36
-122 -25 -45 9 -128 70 -118 86 9 14 119 -2 180 -26z m-1877 -371 c0 -2 -12
-14 -27 -28 l-28 -24 24 28 c23 25 31 32 31 24z m3307 -83 c18 -50 27 -97 31
-167 5 -95 4 -99 -28 -161 -17 -35 -45 -80 -61 -99 l-29 -35 -112 64 c-62 35
-116 72 -121 80 -26 47 29 216 97 297 l23 29 -3 -39 c-1 -21 -6 -46 -10 -56
-6 -15 -2 -14 17 5 14 12 46 38 73 56 33 23 53 46 64 73 19 48 26 43 59 -47z
m-3288 11 c-12 -19 -23 -35 -25 -35 -6 0 14 40 29 58 18 23 16 12 -4 -23z
m-99 -8 c0 -2 -15 -16 -32 -33 l-33 -29 29 33 c28 30 36 37 36 29z m350 -17
c-6 -11 -12 -20 -14 -20 -2 0 -2 9 1 20 3 11 9 20 15 20 5 0 4 -9 -2 -20z
m-23 4 c-3 -3 -12 -4 -19 -1 -8 3 -5 6 6 6 11 1 17 -2 13 -5z m-120 -40 c-3
-3 -12 -4 -19 -1 -8 3 -5 6 6 6 11 1 17 -2 13 -5z m88 -64 c-19 -38 -38 -70
-40 -70 -3 0 11 32 30 70 19 39 38 70 40 70 3 0 -11 -31 -30 -70z m-355 46 c0
-2 -8 -10 -17 -17 -16 -13 -17 -12 -4 4 13 16 21 21 21 13z m210 0 c0 -2 -13
-9 -30 -15 -35 -12 -41 -5 -7 9 25 10 37 12 37 6z m-120 -116 c-8 -5 -19 -10
-25 -10 -5 0 -3 5 5 10 8 5 20 10 25 10 6 0 3 -5 -5 -10z m-179 -27 c-12 -20
-14 -14 -5 12 4 9 9 14 11 11 3 -2 0 -13 -6 -23z m200 -40 c-12 -20 -14 -14
-5 12 4 9 9 14 11 11 3 -2 0 -13 -6 -23z m-220 -10 c-12 -20 -14 -14 -5 12 4
9 9 14 11 11 3 -2 0 -13 -6 -23z m-20 -46 c-10 -9 -11 -8 -5 6 3 10 9 15 12
12 3 -3 0 -11 -7 -18z m389 5 c0 -5 -7 -17 -15 -28 -14 -18 -14 -17 -4 9 12
27 19 34 19 19z m-199 -55 c-10 -9 -11 -8 -5 6 3 10 9 15 12 12 3 -3 0 -11 -7
-18z m129 -72 c-23 -36 -45 -65 -47 -65 -3 0 5 15 16 33 12 17 32 49 44 69 12
20 23 35 26 33 2 -3 -15 -34 -39 -70z m1515 37 c-6 -5 -35 -31 -65 -58 -48
-42 -50 -43 -17 -8 20 22 34 44 30 49 -5 4 -2 5 5 1 6 -4 12 -3 12 3 0 5 8 12
18 14 9 3 19 5 22 6 2 0 0 -3 -5 -7z m1405 -47 c86 -43 170 -132 170 -178 0
-9 -18 -19 -47 -26 -26 -7 -65 -21 -87 -31 -42 -18 -112 -40 -132 -40 -6 0
-15 21 -21 48 l-9 47 -13 -30 c-24 -57 -24 -117 -1 -206 49 -187 67 -402 38
-442 -15 -19 -40 -20 -245 -11 l-133 6 0 39 c0 86 43 119 156 119 l51 0 7 63
c6 66 -3 135 -31 223 -16 51 -16 53 11 118 26 66 35 156 16 156 -5 0 -10 -10
-10 -23 0 -33 -46 -96 -76 -103 -46 -12 -104 4 -222 59 -158 75 -191 84 -245
66 -94 -30 -200 -77 -209 -92 -5 -11 -5 -24 2 -37 9 -16 8 -18 -5 -14 -8 4
-15 10 -15 15 0 4 -7 6 -15 3 -12 -5 -15 2 -15 34 0 35 5 45 37 71 35 29 138
71 174 71 10 0 19 5 21 11 2 7 35 7 108 0 147 -15 382 -16 465 -2 67 11 254
67 265 78 3 3 -4 4 -16 1 -14 -4 -25 1 -33 13 -14 24 -38 24 -97 -1 -26 -11
-51 -19 -57 -17 -5 1 20 14 54 29 69 28 71 28 159 -17z m-1505 5 c-3 -5 -12
-10 -18 -10 -7 0 -6 4 3 10 19 12 23 12 15 0z m-1592 -15 c-3 -9 -8 -14 -10
-11 -3 3 -2 9 2 15 9 16 15 13 8 -4z m257 -15 c-6 -11 -15 -20 -20 -20 -6 0
-2 9 7 20 10 11 19 20 21 20 1 0 -2 -9 -8 -20z m2525 -25 c-16 -8 -39 -14 -50
-14 -11 1 -2 7 20 14 52 17 68 17 30 0z m-669 -13 c-10 -2 -22 0 -28 6 -6 6 0
7 19 4 21 -5 23 -7 9 -10z m-1916 4 c0 -2 -8 -10 -17 -17 -16 -13 -17 -12 -4
4 13 16 21 21 21 13z m1834 -6 c-54 -12 -144 -91 -177 -155 -9 -16 -16 -25
-17 -19 0 6 14 32 31 58 38 56 132 126 168 125 24 -1 23 -2 -5 -9z m-1913 -23
c-10 -9 -11 -8 -5 6 3 10 9 15 12 12 3 -3 0 -11 -7 -18z m2119 13 c0 -7 -14
-8 -37 -4 -52 9 -54 14 -5 14 23 0 42 -5 42 -10z m460 0 c-8 -5 -22 -10 -30
-10 -13 0 -13 1 0 10 8 5 22 10 30 10 13 0 13 -1 0 -10z m-2755 -40 c-9 -16
-18 -30 -21 -30 -2 0 2 14 11 30 9 17 18 30 21 30 2 0 -2 -13 -11 -30z m213
-105 c-12 -24 -23 -43 -26 -41 -4 5 36 86 43 86 3 0 -5 -20 -17 -45z m-268 5
c-6 -11 -13 -20 -16 -20 -2 0 0 9 6 20 6 11 13 20 16 20 2 0 0 -9 -6 -20z
m2335 -40 l50 -7 -50 0 c-27 -1 -63 3 -80 7 l-30 8 30 0 c17 0 53 -3 80 -8z
m-394 -36 c-5 -16 -10 -21 -10 -12 -1 18 10 51 15 45 2 -1 -1 -16 -5 -33z
m473 17 c10 -15 -113 -71 -153 -70 -34 1 -33 2 11 9 49 9 133 52 121 63 -3 4
-1 7 5 7 6 0 13 -4 16 -9z m-2454 -5 c0 -2 -8 -10 -17 -17 -16 -13 -17 -12 -4
4 13 16 21 21 21 13z m268 -21 c-6 -14 -13 -23 -15 -21 -5 5 15 46 22 46 3 0
-1 -11 -7 -25z m1699 -57 c-3 -7 -5 -2 -5 12 0 14 2 19 5 13 2 -7 2 -19 0 -25z
m238 18 c8 -8 42 -17 75 -21 33 -4 58 -11 55 -15 -3 -4 3 -7 12 -5 10 2 60 6
111 9 l92 6 -15 -30 c-19 -36 -28 -39 -15 -5 7 19 6 25 -4 25 -29 0 -44 -12
-39 -31 4 -15 0 -19 -20 -19 -13 0 -40 -3 -58 -6 -32 -6 -33 -6 -14 9 11 9 28
17 37 17 9 0 19 4 22 9 7 11 -97 2 -109 -10 -6 -6 -5 -13 5 -20 11 -7 7 -8
-12 -3 -35 8 -35 1 -3 -20 22 -15 31 -15 83 -3 31 8 75 13 97 11 66 -7 95 -4
132 11 45 19 43 19 43 -8 0 -28 -19 -47 -76 -75 -22 -11 -46 -28 -53 -36 -12
-14 -10 -15 20 -10 57 11 162 54 185 75 l22 21 13 -74 c9 -56 14 -67 19 -48
l6 25 6 -29 c3 -16 2 -43 -3 -59 -6 -22 -5 -33 4 -39 7 -5 -2 -8 -24 -8 -61 0
-152 -87 -165 -159 -10 -57 -18 -65 -106 -115 -46 -25 -112 -72 -148 -103 -39
-34 -53 -43 -35 -23 17 19 34 37 38 41 5 3 3 33 -3 66 -7 33 -10 103 -9 157 2
53 4 96 4 96 0 0 -15 -4 -32 -9 -28 -8 -38 -5 -71 18 -93 68 -172 193 -172
272 0 38 22 82 56 108 32 25 32 25 49 7z m-2275 -36 c-12 -16 -24 -30 -26 -30
-3 0 4 14 16 30 12 17 24 30 26 30 3 0 -4 -13 -16 -30z m303 -5 c-3 -9 -8 -14
-10 -11 -3 3 -2 9 2 15 9 16 15 13 8 -4z m1511 -27 c9 -43 2 -45 -11 -3 -6 19
-8 35 -3 35 4 0 10 -14 14 -32z m213 10 c-3 -8 -6 -5 -6 6 -1 11 2 17 5 13 3
-3 4 -12 1 -19z m943 -7 c-14 -28 -27 -33 -34 -15 -3 8 -2 13 3 10 5 -3 14 1
21 9 17 21 23 19 10 -4z m455 -73 c16 -156 12 -218 -17 -274 -15 -29 -30 -77
-34 -113 -11 -96 -28 -71 -36 52 -4 59 -14 147 -23 195 -8 48 -15 100 -15 116
0 28 1 28 19 12 18 -17 20 -15 52 38 19 31 36 56 40 56 3 0 10 -37 14 -82z
m-3455 58 c0 -2 -8 -10 -17 -17 -16 -13 -17 -12 -4 4 13 16 21 21 21 13z m300
-43 c-11 -17 -11 -17 -6 0 3 10 6 24 7 30 0 9 2 9 5 0 3 -7 0 -20 -6 -30z
m2715 -66 c10 -51 -1 -47 -13 6 -5 23 -13 51 -16 62 -5 12 -2 10 7 -5 9 -14
18 -42 22 -63z m-1157 22 c-3 -33 -4 -33 -8 8 -3 23 -2 39 3 34 5 -5 7 -24 5
-42z m-1908 21 c-6 -11 -13 -20 -16 -20 -2 0 0 9 6 20 6 11 13 20 16 20 2 0 0
-9 -6 -20z m2113 -65 c4 -27 3 -35 -3 -25 -5 8 -10 28 -10 44 0 39 6 30 13
-19z m929 -40 c14 -19 -1 -17 -23 4 -12 11 -27 18 -32 14 -6 -3 -7 -1 -4 4 4
6 -2 18 -13 28 -11 10 -20 23 -20 29 0 9 73 -53 92 -79z m-2715 53 c-3 -8 -6
-5 -6 6 -1 11 2 17 5 13 3 -3 4 -12 1 -19z m1500 -70 c-2 -18 -4 -4 -4 32 0
36 2 50 4 33 2 -18 2 -48 0 -65z m-1867 62 c-6 -11 -13 -20 -16 -20 -2 0 0 9
6 20 6 11 13 20 16 20 2 0 0 -9 -6 -20z m220 17 c0 -2 -10 -12 -22 -23 l-23
-19 19 23 c18 21 26 27 26 19z m340 -7 c0 -5 -10 -15 -22 -21 -23 -12 -23 -12
-4 10 21 23 26 26 26 11z m-208 -52 c-8 -8 -9 -4 -5 13 4 13 8 18 11 10 2 -7
-1 -18 -6 -23z m-182 18 c0 -1 -33 -31 -72 -65 l-73 -63 70 66 c68 64 75 70
75 62z m-228 -75 c-20 -38 -38 -68 -40 -66 -4 3 33 78 56 113 28 43 21 21 -16
-47z m274 36 c-17 -42 -45 -94 -46 -86 0 10 51 119 56 119 2 0 -2 -15 -10 -33z
m331 11 c-3 -8 -6 -5 -6 6 -1 11 2 17 5 13 3 -3 4 -12 1 -19z m1663 -53 l45
-50 -47 45 c-27 24 -48 48 -48 54 0 5 1 7 3 5 1 -2 22 -27 47 -54z m850 30 c0
-16 -6 -25 -15 -25 -18 0 -20 21 -3 38 17 17 18 16 18 -13z m-2713 -7 c-3 -8
-6 -5 -6 6 -1 11 2 17 5 13 3 -3 4 -12 1 -19z m1610 -25 c-3 -10 -5 -2 -5 17
0 19 2 27 5 18 2 -10 2 -26 0 -35z m-186 6 c-5 -13 -10 -19 -10 -12 -1 15 10
45 15 40 3 -2 0 -15 -5 -28z m-1343 -46 c-61 -80 -74 -95 -60 -68 14 26 101
135 107 135 3 0 -18 -30 -47 -67z m109 15 c-2 -13 -4 -5 -4 17 -1 22 1 32 4
23 2 -10 2 -28 0 -40z m-200 -25 c-3 -10 -5 -2 -5 17 0 19 2 27 5 18 2 -10 2
-26 0 -35z m1462 17 c11 -24 11 -24 -3 -6 -9 11 -16 24 -16 30 0 12 5 7 19
-24z m78 -47 c-3 -10 -5 -2 -5 17 0 19 2 27 5 18 2 -10 2 -26 0 -35z m90 -5
c-2 -13 -4 -5 -4 17 -1 22 1 32 4 23 2 -10 2 -28 0 -40z m403 -36 c28 -24 50
-48 50 -54 0 -6 -9 1 -20 15 -12 15 -48 45 -80 68 -33 23 -60 44 -60 46 0 9
64 -34 110 -75z m-2350 65 c0 -2 -17 -19 -37 -38 l-38 -34 34 38 c33 34 41 42
41 34z m106 -138 c-19 -57 -35 -98 -36 -91 0 18 62 204 66 199 2 -2 -11 -51
-30 -108z m401 59 c-2 -13 -4 -5 -4 17 -1 22 1 32 4 23 2 -10 2 -28 0 -40z
m-656 -29 c-5 -13 -10 -19 -10 -12 -1 15 10 45 15 40 3 -2 0 -15 -5 -28z m79
27 c0 -2 -8 -10 -17 -17 -16 -13 -17 -12 -4 4 13 16 21 21 21 13z m1855 -36
c10 -11 16 -20 13 -20 -3 0 -13 9 -23 20 -10 11 -16 20 -13 20 3 0 13 -9 23
-20z m172 -2 c-3 -8 -6 -5 -6 6 -1 11 2 17 5 13 3 -3 4 -12 1 -19z m-1450 -35
c-3 -10 -5 -2 -5 17 0 19 2 27 5 18 2 -10 2 -26 0 -35z m-607 33 c0 -2 -8 -10
-17 -17 -16 -13 -17 -12 -4 4 13 16 21 21 21 13z m2237 -18 c-3 -8 -6 -5 -6 6
-1 11 2 17 5 13 3 -3 4 -12 1 -19z m-292 -26 c-3 -3 -11 0 -18 7 -9 10 -8 11
6 5 10 -3 15 -9 12 -12z m101 -1 c-6 -9 -46 -22 -46 -15 0 3 10 9 23 14 29 11
29 11 23 1z m201 -53 c-2 -13 -4 -3 -4 22 0 25 2 35 4 23 2 -13 2 -33 0 -45z
m-260 46 c-3 -3 -12 -4 -19 -1 -8 3 -5 6 6 6 11 1 17 -2 13 -5z m530 -41 c-3
-10 -5 -4 -5 12 0 17 2 24 5 18 2 -7 2 -21 0 -30z m-2587 -18 c-11 -22 -20
-33 -20 -26 0 14 32 72 37 68 1 -2 -6 -21 -17 -42z m687 -12 c-3 -10 -5 -4 -5
12 0 17 2 24 5 18 2 -7 2 -21 0 -30z m197 -27 c-3 -15 -8 -25 -11 -23 -2 3 -1
17 3 31 3 15 8 25 11 23 2 -3 1 -17 -3 -31z m1724 -31 c0 -16 -2 -15 -8 5 -4
14 -8 34 -8 45 0 16 2 15 8 -5 4 -14 8 -34 8 -45z m-2371 33 c-3 -8 -6 -5 -6
6 -1 11 2 17 5 13 3 -3 4 -12 1 -19z m3276 -5 c-7 -2 -21 -2 -30 0 -10 3 -4 5
12 5 17 0 24 -2 18 -5z m-2816 -35 c-3 -7 -5 -2 -5 12 0 14 2 19 5 13 2 -7 2
-19 0 -25z m1596 17 c-3 -9 -8 -14 -10 -11 -3 3 -2 9 2 15 9 16 15 13 8 -4z
m1262 5 c3 -6 -1 -7 -9 -4 -18 7 -21 14 -7 14 6 0 13 -4 16 -10z m215 -52 c0
-13 0 -14 -29 32 l-23 35 26 -28 c14 -15 26 -33 26 -39z m-3543 15 c-3 -10 -5
-4 -5 12 0 17 2 24 5 18 2 -7 2 -21 0 -30z m2832 33 c-9 -8 -99 -44 -99 -40 0
6 81 43 94 44 5 0 7 -2 5 -4z m397 -34 c-15 -15 -15 -15 -4 10 7 15 15 23 17
17 2 -6 -4 -18 -13 -27z m-1419 -69 c-2 -21 -4 -6 -4 32 0 39 2 55 4 38 2 -18
2 -50 0 -70z m1558 79 c-3 -3 -11 0 -18 7 -9 10 -8 11 6 5 10 -3 15 -9 12 -12z
m-2728 -64 c-2 -13 -4 -3 -4 22 0 25 2 35 4 23 2 -13 2 -33 0 -45z m-160 20
c-3 -7 -5 -2 -5 12 0 14 2 19 5 13 2 -7 2 -19 0 -25z m1299 -14 c-8 -21 -15
-34 -15 -28 -1 15 20 76 25 71 2 -2 -2 -21 -10 -43z m618 30 c3 -8 2 -12 -4
-9 -6 3 -10 10 -10 16 0 14 7 11 14 -7z m665 0 c10 -9 -45 -3 -59 6 -11 7 -5
8 20 4 19 -4 37 -8 39 -10z m342 -1 c13 -16 12 -17 -3 -4 -10 7 -18 15 -18 17
0 8 8 3 21 -13z m-681 3 c0 -2 -8 -10 -17 -17 -16 -13 -17 -12 -4 4 13 16 21
21 21 13z m247 -2 c-3 -3 -12 -4 -19 -1 -8 3 -5 6 6 6 11 1 17 -2 13 -5z
m-2980 -41 c-3 -10 -5 -4 -5 12 0 17 2 24 5 18 2 -7 2 -21 0 -30z m253 33 c0
-2 -8 -10 -17 -17 -16 -13 -17 -12 -4 4 13 16 21 21 21 13z m37 -139 c-2 -23
-3 -1 -3 48 0 50 1 68 3 42 2 -26 2 -67 0 -90z m433 88 c0 -5 -5 -3 -10 5 -5
8 -10 20 -10 25 0 6 5 3 10 -5 5 -8 10 -19 10 -25z m2445 25 c3 -6 -1 -7 -9
-4 -18 7 -21 14 -7 14 6 0 13 -4 16 -10z m291 -32 c23 -45 12 -43 -13 3 -12
21 -17 37 -12 33 5 -3 16 -19 25 -36z m-2959 10 c-3 -8 -6 -5 -6 6 -1 11 2 17
5 13 3 -3 4 -12 1 -19z m2490 16 c-3 -3 -12 -4 -19 -1 -8 3 -5 6 6 6 11 1 17
-2 13 -5z m580 -16 c-3 -8 -6 -5 -6 6 -1 11 2 17 5 13 3 -3 4 -12 1 -19z
m-620 6 c-3 -3 -12 -4 -19 -1 -8 3 -5 6 6 6 11 1 17 -2 13 -5z m590 -41 c-3
-10 -5 -2 -5 17 0 19 2 27 5 18 2 -10 2 -26 0 -35z m-918 -18 c-23 -30 -44
-55 -46 -55 -3 0 -1 6 4 13 44 59 75 97 79 97 3 0 -14 -25 -37 -55z m288 49
c-3 -3 -12 -4 -19 -1 -8 3 -5 6 6 6 11 1 17 -2 13 -5z m-2712 -34 c-9 -16 -18
-30 -21 -30 -2 0 2 14 11 30 9 17 18 30 21 30 2 0 -2 -13 -11 -30z m2640 15
c-50 -18 -57 -18 -25 0 14 8 34 14 45 14 11 0 2 -6 -20 -14z m-2328 -17 c-3
-8 -6 -5 -6 6 -1 11 2 17 5 13 3 -3 4 -12 1 -19z m242 -33 c0 -5 -6 1 -14 15
-8 14 -14 30 -14 35 0 6 6 -1 14 -15 8 -14 14 -29 14 -35z m-762 -97 c-2 -29
-3 -8 -3 47 0 55 1 79 3 53 2 -26 2 -71 0 -100z m1770 100 c-3 -8 -6 -5 -6 6
-1 11 2 17 5 13 3 -3 4 -12 1 -19z m983 8 c0 -2 -8 -10 -17 -17 -16 -13 -17
-12 -4 4 13 16 21 21 21 13z m750 -31 c0 -5 -5 -3 -10 5 -5 8 -10 20 -10 25 0
6 5 3 10 -5 5 -8 10 -19 10 -25z m97 -42 c-2 -16 -4 -3 -4 27 0 30 2 43 4 28
2 -16 2 -40 0 -55z m-1407 47 c-6 -11 -15 -20 -21 -20 -6 0 -8 -4 -5 -8 3 -5
-1 -9 -9 -9 -20 0 -19 4 11 32 33 30 38 31 24 5z m-1533 -57 c-2 -16 -4 -5 -4
22 0 28 2 40 4 28 2 -13 2 -35 0 -50z m2590 23 c24 -29 24 -29 5 -49 -17 -17
-38 -20 -148 -24 -86 -3 -153 0 -199 9 l-70 14 27 25 c28 26 117 57 178 61 19
2 68 1 108 -2 66 -5 77 -8 99 -34z m290 -3 c-3 -10 -5 -2 -5 17 0 19 2 27 5
18 2 -10 2 -26 0 -35z m-2987 2 c0 -5 -5 -3 -10 5 -5 8 -10 20 -10 25 0 6 5 3
10 -5 5 -8 10 -19 10 -25z m228 10 c-3 -3 -9 2 -12 12 -6 14 -5 15 5 6 7 -7
10 -15 7 -18z m979 3 c-3 -8 -6 -5 -6 6 -1 11 2 17 5 13 3 -3 4 -12 1 -19z
m-1606 -35 c-12 -20 -14 -14 -5 12 4 9 9 14 11 11 3 -2 0 -13 -6 -23z m648
-13 c11 -24 11 -24 -3 -6 -9 11 -16 24 -16 30 0 12 5 7 19 -24z m-502 -47 c-2
-16 -4 -5 -4 22 0 28 2 40 4 28 2 -13 2 -35 0 -50z m287 10 c14 -29 24 -53 21
-53 -5 0 -55 95 -55 106 0 12 6 2 34 -53z m1163 35 c-3 -8 -6 -5 -6 6 -1 11 2
17 5 13 3 -3 4 -12 1 -19z m371 -8 c-7 -10 -14 -17 -17 -15 -4 4 18 35 25 35
2 0 -1 -9 -8 -20z m1249 -22 c-3 -7 -5 -2 -5 12 0 14 2 19 5 13 2 -7 2 -19 0
-25z m-713 1 c-10 -11 -28 -25 -39 -31 -11 -6 -4 4 15 20 41 36 51 41 24 11z
m931 -39 c-4 -23 -9 -39 -11 -37 -3 2 -2 23 2 46 4 23 9 40 11 37 3 -3 2 -23
-2 -46z m-2725 -29 c23 -35 38 -61 32 -57 -12 7 -82 111 -82 122 0 9 -1 10 50
-65z m877 37 c-3 -7 -5 -2 -5 12 0 14 2 19 5 13 2 -7 2 -19 0 -25z m90 -5 c-3
-10 -5 -4 -5 12 0 17 2 24 5 18 2 -7 2 -21 0 -30z m535 19 c3 -11 0 -19 -8
-19 -16 0 -16 0 -8 21 8 21 11 20 16 -2z m-2235 -14 c-3 -8 -6 -5 -6 6 -1 11
2 17 5 13 3 -3 4 -12 1 -19z m3247 -59 c4 -8 0 -5 -8 5 -9 11 -16 31 -15 45 1
24 2 24 8 -5 4 -17 11 -37 15 -45z m-1237 29 c-3 -8 -6 -5 -6 6 -1 11 2 17 5
13 3 -3 4 -12 1 -19z m-2020 -10 c-3 -8 -6 -5 -6 6 -1 11 2 17 5 13 3 -3 4
-12 1 -19z m208 -96 c-6 -7 -25 72 -24 98 0 14 7 -2 14 -35 7 -33 11 -62 10
-63z m342 86 c-3 -7 -5 -2 -5 12 0 14 2 19 5 13 2 -7 2 -19 0 -25z m1060 -15
c-3 -10 -5 -2 -5 17 0 19 2 27 5 18 2 -10 2 -26 0 -35z m-1720 0 c-3 -10 -5
-4 -5 12 0 17 2 24 5 18 2 -7 2 -21 0 -30z m2080 0 c-3 -10 -5 -4 -5 12 0 17
2 24 5 18 2 -7 2 -21 0 -30z m-1980 -35 c-3 -7 -5 -2 -5 12 0 14 2 19 5 13 2
-7 2 -19 0 -25z m3392 -1 c0 -21 -1 -21 -9 -2 -12 28 -12 37 0 30 6 -3 10 -16
9 -28z m-309 -4 c-8 -3 -18 -11 -22 -17 -5 -7 -8 -4 -8 7 0 11 7 17 23 16 15
0 17 -2 7 -6z m230 -37 c0 -12 -5 -7 -19 24 -11 24 -11 24 3 6 9 -11 16 -24
16 -30z m-1103 -13 c-3 -10 -5 -2 -5 17 0 19 2 27 5 18 2 -10 2 -26 0 -35z
m90 25 c-3 -8 -6 -5 -6 6 -1 11 2 17 5 13 3 -3 4 -12 1 -19z m-2310 -35 c-3
-10 -5 -2 -5 17 0 19 2 27 5 18 2 -10 2 -26 0 -35z m3410 -96 c-2 -23 -3 -1
-3 48 0 50 1 68 3 42 2 -26 2 -67 0 -90z m-3480 101 c-3 -8 -6 -5 -6 6 -1 11
2 17 5 13 3 -3 4 -12 1 -19z m930 -19 c-8 -10 -27 -28 -43 -40 -26 -20 -26
-19 4 11 23 22 32 39 29 52 -4 15 -3 17 9 7 11 -9 11 -14 1 -30z m760 -11 c-2
-13 -4 -5 -4 17 -1 22 1 32 4 23 2 -10 2 -28 0 -40z m1466 32 c3 -11 1 -18 -4
-14 -5 3 -9 12 -9 20 0 20 7 17 13 -6z m145 -39 c33 -58 21 -51 -17 11 -18 28
-26 47 -19 40 8 -6 24 -29 36 -51z m-2978 14 c0 -5 -5 -3 -10 5 -5 8 -10 20
-10 25 0 6 5 3 10 -5 5 -8 10 -19 10 -25z m2599 32 c-16 -12 -79 -45 -79 -42
0 7 63 45 74 45 5 0 7 -1 5 -3z m-811 -38 c-1 -22 -3 -27 -10 -16 -4 8 -5 22
-2 31 9 24 13 19 12 -15z m849 -6 c-3 -10 -5 -4 -5 12 0 17 2 24 5 18 2 -7 2
-21 0 -30z m440 15 c-3 -8 -6 -5 -6 6 -1 11 2 17 5 13 3 -3 4 -12 1 -19z
m-1533 -25 c9 -18 14 -33 12 -33 -6 0 -36 55 -36 66 0 11 5 3 24 -33z m533 5
c-3 -8 -6 -5 -6 6 -1 11 2 17 5 13 3 -3 4 -12 1 -19z m208 -28 c-9 -16 -18
-30 -21 -30 -2 0 2 14 11 30 9 17 18 30 21 30 2 0 -2 -13 -11 -30z m802 8 c-3
-8 -6 -5 -6 6 -1 11 2 17 5 13 3 -3 4 -12 1 -19z m-1000 -20 c-3 -8 -6 -5 -6
6 -1 11 2 17 5 13 3 -3 4 -12 1 -19z m416 7 c-3 -9 -8 -14 -10 -11 -3 3 -2 9
2 15 9 16 15 13 8 -4z m314 -60 c21 -42 1 -19 -26 30 -13 22 -15 31 -6 20 9
-11 23 -33 32 -50z m-3087 15 c4 -3 11 -16 14 -30 5 -18 0 -13 -18 15 -14 22
-25 45 -25 50 0 6 5 1 11 -10 6 -11 14 -22 18 -25z m325 -2 c15 -24 46 -61 69
-82 34 -33 35 -36 9 -18 -34 24 -126 142 -110 142 2 0 17 -19 32 -42z m475 37
c0 -10 -84 -45 -105 -44 -11 0 -2 6 20 13 23 7 50 18 60 24 23 13 25 14 25 7z
m2567 -27 c-3 -7 -5 -2 -5 12 0 14 2 19 5 13 2 -7 2 -19 0 -25z m-1087 2 c6
-11 8 -20 6 -20 -3 0 -10 9 -16 20 -6 11 -8 20 -6 20 3 0 10 -9 16 -20z m997
-2 c-3 -8 -6 -5 -6 6 -1 11 2 17 5 13 3 -3 4 -12 1 -19z m-1650 -20 c-3 -7 -5
-2 -5 12 0 14 2 19 5 13 2 -7 2 -19 0 -25z m740 -40 c-2 -13 -4 -3 -4 22 0 25
2 35 4 23 2 -13 2 -33 0 -45z m-1709 35 c-10 -2 -28 -2 -40 0 -13 2 -5 4 17 4
22 1 32 -1 23 -4z m1273 -85 c19 -34 2 -17 -30 30 -25 35 -26 40 -6 17 14 -16
30 -38 36 -47z m399 47 c13 -14 21 -25 18 -25 -2 0 -15 11 -28 25 -13 14 -21
25 -18 25 2 0 15 -11 28 -25z m-713 -17 c-3 -7 -5 -2 -5 12 0 14 2 19 5 13 2
-7 2 -19 0 -25z m1670 -45 c-2 -16 -4 -3 -4 27 0 30 2 43 4 28 2 -16 2 -40 0
-55z m90 15 c-2 -13 -4 -3 -4 22 0 25 2 35 4 23 2 -13 2 -33 0 -45z m-1917 46
c0 -6 -65 -34 -77 -33 -4 0 10 9 32 19 48 22 45 21 45 14z m1935 -79 c-10 -25
-20 -44 -22 -42 -2 2 5 25 14 50 9 25 19 44 21 42 2 -2 -4 -24 -13 -50z
m-2845 5 c23 -45 24 -50 10 -50 -5 0 -10 7 -10 15 0 9 -7 29 -15 45 -9 17 -13
30 -10 30 2 0 14 -18 25 -40z m810 30 c-8 -5 -19 -10 -25 -10 -5 0 -3 5 5 10
8 5 20 10 25 10 6 0 3 -5 -5 -10z m247 -12 c-3 -8 -6 -5 -6 6 -1 11 2 17 5 13
3 -3 4 -12 1 -19z m773 12 c0 -5 -2 -10 -4 -10 -3 0 -8 5 -11 10 -3 6 -1 10 4
10 6 0 11 -4 11 -10z m-946 -34 c-3 -15 -8 -25 -11 -23 -2 3 -1 17 3 31 3 15
8 25 11 23 2 -3 1 -17 -3 -31z m-140 10 c-50 -22 -82 -27 -39 -7 22 11 47 20
55 20 8 0 1 -6 -16 -13z m-805 -22 c14 -12 -19 -1 -35 12 -18 14 -18 14 6 3
14 -6 27 -13 29 -15z m1476 -15 c9 -17 15 -34 13 -39 -2 -5 -11 9 -20 30 -20
47 -15 53 7 9z m-1435 1 c8 -5 11 -10 5 -10 -5 0 -17 5 -25 10 -8 5 -10 10 -5
10 6 0 17 -5 25 -10z m2747 -22 c-3 -8 -6 -5 -6 6 -1 11 2 17 5 13 3 -3 4 -12
1 -19z m-2137 3 c-8 -5 -26 -11 -40 -15 -21 -5 -20 -3 5 9 32 15 60 20 35 6z
m271 -18 c-12 -20 -14 -14 -5 12 4 9 9 14 11 11 3 -2 0 -13 -6 -23z m1279 -3
c6 -11 8 -20 6 -20 -3 0 -10 9 -16 20 -6 11 -8 20 -6 20 3 0 10 -9 16 -20z
m-1120 -10 c-6 -11 -13 -20 -16 -20 -2 0 0 9 6 20 6 11 13 20 16 20 2 0 0 -9
-6 -20z m2099 -36 c117 -62 201 -119 276 -187 l49 -44 -39 -13 c-40 -13 -138
-70 -132 -77 2 -2 22 3 44 11 139 49 388 47 588 -5 193 -50 334 -127 461 -254
145 -144 229 -311 260 -520 27 -178 -3 -351 -96 -555 -49 -107 -80 -164 -80
-147 0 4 20 47 44 95 70 140 72 150 46 245 -22 81 -90 257 -100 257 -3 0 -6
-66 -6 -148 -1 -95 -9 -193 -23 -277 -12 -77 -17 -131 -11 -133 10 -4 89 -110
147 -197 l34 -50 -7 66 -6 66 64 130 64 130 53 -74 c155 -216 241 -469 241
-707 l0 -106 -612 2 c-337 1 -566 4 -510 5 l104 4 -25 32 c-35 47 -131 231
-165 317 -69 176 -67 337 5 402 29 26 110 48 179 48 62 0 177 -30 267 -69 27
-12 51 -21 53 -21 3 0 -7 17 -21 37 -31 46 -163 183 -177 183 -5 0 -6 -5 -2
-12 4 -7 3 -8 -5 -4 -6 4 -9 11 -6 16 3 5 -60 53 -140 106 -80 53 -181 128
-225 166 -144 124 -260 280 -323 434 -18 43 -37 79 -42 81 -11 3 -45 -75 -63
-142 -6 -22 -13 -94 -16 -160 -5 -144 -25 -211 -96 -319 -85 -130 -239 -260
-384 -326 -37 -16 -69 -36 -72 -45 -3 -8 -10 -15 -15 -15 -4 0 -6 7 -3 15 10
25 -119 11 -183 -21 -49 -24 -58 -36 -54 -71 1 -7 -3 -13 -9 -13 -6 0 -8 5 -4
11 4 7 0 9 -12 5 -230 -71 -563 -47 -764 54 -124 63 -196 137 -240 251 -56
142 0 336 120 415 22 15 39 29 37 31 -7 7 -182 -80 -218 -108 -35 -28 -36 -31
-48 -129 -6 -55 -11 -131 -11 -168 1 -61 4 -85 24 -177 5 -22 2 -19 -9 10 -38
98 -28 309 29 613 18 94 30 172 27 172 -13 0 -110 -156 -124 -200 -23 -67 -65
-225 -82 -310 -22 -108 -63 -184 -142 -263 -106 -107 -231 -157 -389 -157
-160 0 -297 40 -424 125 -150 100 -228 208 -260 360 -63 303 133 600 465 705
61 19 94 22 253 23 l183 1 -98 51 c-54 27 -124 68 -155 89 -59 40 -100 86 -76
86 40 -1 244 -33 375 -60 230 -46 303 -79 403 -186 33 -36 65 -62 70 -59 6 3
10 38 10 77 l0 70 36 -43 c47 -57 65 -94 69 -141 1 -21 4 -41 6 -43 2 -2 45
30 94 72 172 143 290 186 690 248 247 38 525 91 640 120 55 14 144 35 198 45
53 11 105 23 114 29 15 8 12 12 -17 29 -36 22 -243 102 -263 102 -7 0 -21 -15
-33 -33 -11 -17 -28 -43 -37 -57 l-16 -25 157 -3 c86 -2 159 -5 161 -8 2 -2
-75 -4 -172 -4 l-177 0 36 47 c39 51 94 156 113 216 7 20 15 37 18 37 4 0 54
-25 112 -56z m-2644 22 c-53 -25 -103 -42 -95 -33 7 8 123 55 135 55 6 0 -12
-10 -40 -22z m2230 -28 c-9 -23 -32 -64 -51 -89 -34 -47 -108 -111 -98 -86 3
8 15 20 28 27 33 17 93 98 113 153 9 26 19 44 21 42 3 -2 -3 -23 -13 -47z
m-694 25 c13 -16 12 -17 -3 -4 -10 7 -18 15 -18 17 0 8 8 3 21 -13z m-531 -38
c19 -19 32 -35 29 -35 -3 0 -20 16 -39 35 -19 19 -32 35 -29 35 3 0 20 -16 39
-35z m1001 8 c-12 -20 -14 -14 -5 12 4 9 9 14 11 11 3 -2 0 -13 -6 -23z
m-1650 -6 c-10 -9 -11 -8 -5 6 3 10 9 15 12 12 3 -3 0 -11 -7 -18z m159 9 c0
-2 -8 -10 -17 -17 -16 -13 -17 -12 -4 4 13 16 21 21 21 13z m1567 -53 c-3 -10
-5 -2 -5 17 0 19 2 27 5 18 2 -10 2 -26 0 -35z m-420 0 c-3 -10 -5 -4 -5 12 0
17 2 24 5 18 2 -7 2 -21 0 -30z m-1326 4 c-10 -9 -11 -8 -5 6 3 10 9 15 12 12
3 -3 0 -11 -7 -18z m336 1 c-3 -8 -6 -5 -6 6 -1 11 2 17 5 13 3 -3 4 -12 1
-19z m30 0 c-3 -8 -6 -5 -6 6 -1 11 2 17 5 13 3 -3 4 -12 1 -19z m-867 7 c0
-2 -10 -9 -22 -15 -22 -11 -22 -10 -4 4 21 17 26 19 26 11z m635 -5 c-3 -5
-20 -19 -38 -30 -32 -22 -32 -22 3 9 37 32 45 37 35 21z m494 -79 c1 -35 -5
-22 -12 24 -5 28 -4 34 3 20 5 -11 9 -31 9 -44z m-1217 27 c-10 -10 -8 -16 10
-31 23 -18 5 -13 -20 6 -9 7 -9 13 -1 23 6 8 14 14 17 14 3 0 0 -6 -6 -12z
m1328 -8 c6 -11 8 -20 6 -20 -3 0 -10 9 -16 20 -6 11 -8 20 -6 20 3 0 10 -9
16 -20z m787 -42 c-2 -13 -4 -3 -4 22 0 25 2 35 4 23 2 -13 2 -33 0 -45z
m-1487 32 c-14 -11 -29 -20 -35 -20 -5 0 4 9 20 20 38 25 48 25 15 0z m287
-22 c-3 -7 -5 -2 -5 12 0 14 2 19 5 13 2 -7 2 -19 0 -25z m353 12 c6 -11 8
-20 6 -20 -3 0 -10 9 -16 20 -6 11 -8 20 -6 20 3 0 10 -9 16 -20z m890 -45
c-38 -39 -50 -43 -50 -17 0 12 3 13 8 4 6 -9 16 -4 37 18 16 16 31 30 34 30 3
0 -10 -16 -29 -35z m-933 -17 c-3 -7 -5 -2 -5 12 0 14 2 19 5 13 2 -7 2 -19 0
-25z m-1767 2 c-259 -24 -530 -216 -655 -466 -37 -73 -46 -82 -19 -18 22 53
92 159 143 216 90 101 266 214 391 251 81 23 89 25 160 24 63 0 63 0 -20 -7z
m270 0 c31 -5 15 -6 -50 -3 -52 3 -97 7 -99 9 -8 7 104 3 149 -6z m435 -45
l40 -36 -52 36 c-29 20 -56 41 -59 47 -11 17 28 -9 71 -47z m855 20 c0 -5 -5
-3 -10 5 -5 8 -10 20 -10 25 0 6 5 3 10 -5 5 -8 10 -19 10 -25z m-1165 5 c14
-7 8 -8 -20 -3 -22 3 -42 7 -44 9 -9 8 45 2 64 -6z m166 -47 c66 -20 117 -38
115 -40 -2 -2 -62 14 -132 36 -71 22 -123 40 -115 41 8 0 67 -17 132 -37z
m1216 -5 c-3 -7 -5 -2 -5 12 0 14 2 19 5 13 2 -7 2 -19 0 -25z m182 -12 c-3
-3 -11 5 -18 17 -13 21 -12 21 5 5 10 -10 16 -20 13 -22z m-360 -31 c0 -5 -6
1 -14 15 -8 14 -14 30 -14 35 0 6 6 -1 14 -15 8 -14 14 -29 14 -35z m-696 28
c-7 -2 -19 -2 -25 0 -7 3 -2 5 12 5 14 0 19 -2 13 -5z m-529 -34 c62 -24 137
-89 169 -146 l18 -32 -62 -38 c-34 -21 -122 -77 -195 -125 -361 -236 -590
-354 -668 -342 -51 7 -64 16 -81 53 -14 32 -17 56 -12 118 6 101 28 163 86
249 84 123 274 247 427 279 100 20 243 13 318 -16z m649 24 c-7 -2 -21 -2 -30
0 -10 3 -4 5 12 5 17 0 24 -2 18 -5z m764 -15 c-3 -8 -6 -5 -6 6 -1 11 2 17 5
13 3 -3 4 -12 1 -19z m127 6 c3 -8 2 -12 -4 -9 -6 3 -10 10 -10 16 0 14 7 11
14 -7z m-806 -1 c-10 -2 -28 -2 -40 0 -13 2 -5 4 17 4 22 1 32 -1 23 -4z
m-384 -12 c4 -5 -3 -7 -14 -4 -23 6 -26 13 -6 13 8 0 17 -4 20 -9z m464 2
c-10 -2 -28 -2 -40 0 -13 2 -5 4 17 4 22 1 32 -1 23 -4z m95 -10 c-7 -2 -21
-2 -30 0 -10 3 -4 5 12 5 17 0 24 -2 18 -5z m70 -10 c-7 -2 -21 -2 -30 0 -10
3 -4 5 12 5 17 0 24 -2 18 -5z m643 -53 c8 0 14 -4 14 -10 0 -5 -3 -10 -7 -10
-10 0 -73 62 -73 73 0 5 12 -5 26 -22 14 -17 32 -31 40 -31z m14 16 c0 -12 -5
-7 -19 24 -11 24 -11 24 3 6 9 -11 16 -24 16 -30z m-605 24 c-3 -5 -12 -7 -20
-3 -21 7 -19 13 6 13 11 0 18 -4 14 -10z m392 -22 c-3 -7 -5 -2 -5 12 0 14 2
19 5 13 2 -7 2 -19 0 -25z m-131 -69 c14 -28 24 -53 22 -55 -2 -2 -16 21 -31
51 -15 30 -25 55 -22 55 3 0 16 -23 31 -51z m141 19 c-3 -7 -5 -2 -5 12 0 14
2 19 5 13 2 -7 2 -19 0 -25z m0 -80 c-3 -7 -5 -2 -5 12 0 14 2 19 5 13 2 -7 2
-19 0 -25z m-8 -63 c-2 -25 -7 -45 -12 -45 -5 0 -6 7 -3 16 3 9 6 29 6 45 0
16 2 29 5 29 3 0 5 -20 4 -45z m-2515 -265 c-13 -47 -22 -68 -19 -48 7 43 35
141 40 136 2 -1 -8 -41 -21 -88z m946 45 c-7 -8 -29 -25 -49 -37 -41 -25 -120
-85 -271 -208 -58 -47 -118 -94 -135 -104 -42 -26 -14 0 85 77 47 36 116 92
154 123 66 54 217 164 225 164 2 0 -2 -7 -9 -15z m12 -35 c-9 -16 -23 -32 -31
-35 -15 -6 -10 2 28 48 21 25 22 21 3 -13z m3421 5 c-3 -9 -8 -14 -10 -11 -3
3 -2 9 2 15 9 16 15 13 8 -4z m-4250 -41 c-15 -20 -49 -78 -75 -128 -26 -50
-48 -88 -48 -83 -1 27 129 247 146 247 3 0 -7 -16 -23 -36z m31 -39 c-13 -42
-24 -86 -25 -98 0 -13 -3 -16 -6 -8 -6 15 38 181 48 181 4 0 -4 -34 -17 -75z
m750 13 c-4 -7 -15 -24 -25 -38 -63 -92 -104 -214 -119 -355 l-9 -80 4 93 c6
115 39 218 101 320 25 39 48 72 50 72 3 0 2 -6 -2 -12z m3423 -50 c-3 -8 -6
-5 -6 6 -1 11 2 17 5 13 3 -3 4 -12 1 -19z m-4360 -20 c-3 -7 -5 -2 -5 12 0
14 2 19 5 13 2 -7 2 -19 0 -25z m-5 -160 c2 -47 0 -81 -4 -75 -4 7 -7 57 -6
112 1 111 6 95 10 -37z m155 0 c-2 -18 -4 -4 -4 32 0 36 2 50 4 33 2 -18 2
-48 0 -65z m-129 -16 c-6 -24 -13 -41 -15 -38 -2 2 1 23 7 46 6 23 13 40 15
38 2 -2 -1 -23 -7 -46z m180 -107 c16 -19 16 -19 -1 -6 -21 16 -47 63 -47 83
1 7 8 -3 16 -22 8 -19 23 -43 32 -55z m282 79 c0 -3 -48 -28 -106 -55 -70 -33
-115 -49 -132 -46 -26 4 -26 4 3 6 17 1 75 24 130 51 117 56 105 51 105 44z
m4050 -167 c87 -92 195 -167 385 -266 33 -17 54 -31 46 -31 -18 0 -201 103
-281 158 -80 55 -226 196 -246 237 l-14 30 22 -30 c13 -16 52 -61 88 -98z
m-124 -58 c-22 -137 -92 -275 -189 -374 -122 -123 -331 -244 -522 -301 -83
-25 -105 -27 -300 -29 l-210 -3 210 8 c162 6 225 13 275 28 240 73 437 188
562 329 77 87 144 224 161 331 10 58 11 82 3 83 -6 0 -6 3 2 6 6 2 13 21 14
41 1 35 1 35 5 6 2 -17 -3 -73 -11 -125z m-4506 66 c0 -8 -6 -12 -13 -9 -7 2
-34 -9 -60 -26 -27 -17 -46 -26 -42 -20 5 8 104 70 113 70 1 0 2 -7 2 -15z m0
-44 c0 -10 -9 -29 -21 -42 l-21 -24 16 25 c9 13 16 32 16 42 0 10 2 18 5 18 3
0 5 -9 5 -19z m546 -30 c33 -20 84 -109 84 -145 -1 -12 -9 4 -20 34 -12 37
-31 66 -57 89 -36 31 -42 33 -93 28 -69 -7 -213 -65 -288 -116 -140 -97 -292
-260 -383 -413 -29 -49 -54 -88 -57 -88 -2 0 13 30 33 68 102 187 325 413 482
487 153 74 243 90 299 56z m358 -36 c4 -34 3 -43 -3 -30 -9 19 -15 93 -7 84 2
-2 6 -26 10 -54z m-1115 -42 c-72 -75 -144 -162 -197 -239 -10 -16 -10 -15 -1
6 27 56 149 203 234 282 67 62 52 43 -36 -49z m115 -40 c-31 -43 -78 -123
-105 -178 -27 -55 -49 -95 -49 -90 -1 36 182 345 205 345 2 0 -21 -35 -51 -77z
m1042 -80 c-5 -5 -36 86 -35 101 0 6 9 -13 20 -43 10 -30 17 -56 15 -58z
m-494 20 c27 -30 48 -93 54 -162 21 -220 -182 -523 -435 -651 -53 -26 -73 -31
-109 -27 -105 12 -158 137 -118 282 34 125 100 235 214 356 155 165 342 261
394 202z m1854 -63 c-3 -44 -11 -90 -16 -102 -10 -23 -10 -23 -5 2 2 14 8 60
11 103 4 42 9 77 12 77 3 0 2 -36 -2 -80z m-1661 -70 c-9 -94 -27 -211 -32
-207 -2 2 3 58 12 123 9 66 13 144 11 174 l-5 55 10 -45 c5 -25 7 -70 4 -100z
m339 48 c40 -83 120 -173 205 -228 41 -28 71 -50 67 -50 -21 0 -150 96 -188
141 -42 49 -118 165 -118 181 0 19 11 5 34 -44z m4051 12 c32 -6 22 -8 -47 -6
-48 0 -88 4 -88 9 0 9 84 8 135 -3z m-200 -14 c-71 -14 -96 -27 -124 -62 -12
-15 -21 -23 -21 -18 2 40 100 94 170 93 27 -1 22 -4 -25 -13z m-2315 -92 c0
-25 142 -158 200 -188 76 -39 116 -53 260 -92 69 -18 116 -33 105 -33 -17 -1
-165 37 -263 68 -47 14 -156 75 -204 114 -55 44 -150 178 -108 152 6 -3 10
-13 10 -21z m-2965 -34 c-14 -27 -28 -50 -30 -50 -3 0 6 23 20 50 14 28 28 50
30 50 3 0 -6 -22 -20 -50z m1681 35 c4 -9 26 -27 49 -41 24 -14 49 -32 56 -40
19 -23 -86 45 -112 72 -12 13 -17 24 -10 24 6 0 14 -7 17 -15z m3444 -95 c-7
-85 -7 -85 -8 -20 -2 56 6 117 13 108 1 -2 -1 -41 -5 -88z m-3408 -1 c24 -7
47 -16 53 -21 5 -5 -13 -2 -40 6 -48 15 -95 54 -95 79 0 7 9 -2 20 -20 13 -23
32 -35 62 -44z m-1528 12 c-4 -17 -9 -30 -11 -27 -3 2 -2 19 2 36 9 41 17 33
9 -9z m2514 7 c-25 -38 -70 -79 -108 -98 -39 -20 -169 -60 -191 -59 -8 0 28
13 78 28 107 32 162 66 201 120 28 41 46 48 20 9z m1562 -30 c-55 -33 -161
-51 -180 -32 -5 5 20 9 58 10 54 0 76 6 112 27 25 14 50 26 55 26 6 0 -15 -14
-45 -31z m-4309 -15 c-12 -20 -14 -14 -5 12 4 9 9 14 11 11 3 -2 0 -13 -6 -23z
m4374 6 c-9 -23 -77 -66 -122 -78 -47 -13 -124 1 -144 25 -9 11 -6 11 17 -1
38 -20 127 -19 170 1 19 9 45 29 57 44 23 29 31 32 22 9z m-4160 -61 c-4 -29
-10 -57 -14 -61 -4 -4 -3 19 2 53 12 74 22 80 12 8z m-237 -16 c-6 -24 -13
-41 -15 -38 -2 2 1 23 7 46 6 23 13 40 15 38 2 -2 -1 -23 -7 -46z m2890 14
c43 -50 114 -98 212 -145 46 -23 78 -41 72 -41 -7 0 -49 19 -95 41 -89 45
-184 114 -209 150 l-15 23 -43 -36 c-44 -38 -188 -118 -212 -118 -7 0 28 20
77 44 50 24 108 60 130 80 22 19 43 35 46 36 4 0 21 -16 37 -34z m-2798 4 c-6
-11 -13 -20 -16 -20 -2 0 0 9 6 20 6 11 13 20 16 20 2 0 0 -9 -6 -20z m24 -24
c-3 -15 -8 -25 -11 -23 -2 3 -1 17 3 31 3 15 8 25 11 23 2 -3 1 -17 -3 -31z
m1003 2 c-3 -8 -6 -5 -6 6 -1 11 2 17 5 13 3 -3 4 -12 1 -19z m693 2 c8 -5 11
-10 5 -10 -5 0 -17 5 -25 10 -8 5 -10 10 -5 10 6 0 17 -5 25 -10z m3408 -115
c-1 -24 -26 73 -26 100 0 19 5 7 13 -30 8 -33 14 -64 13 -70z m-3343 95 c13
-5 14 -9 5 -9 -8 0 -24 4 -35 9 -13 5 -14 9 -5 9 8 0 24 -4 35 -9z m-771 -27
c-4 -16 -20 -64 -37 -108 -53 -142 -152 -272 -275 -366 -61 -46 -68 -49 -121
-47 l-56 1 60 6 c53 5 68 12 123 55 129 102 221 236 278 404 27 82 40 107 28
55z m-1072 -10 c-11 -16 -34 -50 -51 -78 -22 -34 -31 -42 -27 -25 3 14 6 36 7
50 l1 25 7 -25 c7 -25 7 -25 25 10 18 34 45 70 53 70 2 0 -5 -12 -15 -27z
m1957 11 c9 -8 -55 -2 -74 6 -13 6 -5 7 25 3 25 -3 47 -7 49 -9z m454 -1 c-7
-2 -19 -2 -25 0 -7 3 -2 5 12 5 14 0 19 -2 13 -5z m-2466 -25 c-3 -8 -6 -5 -6
6 -1 11 2 17 5 13 3 -3 4 -12 1 -19z m118 -33 c-4 -25 -9 -44 -12 -41 -2 2 -1
25 2 51 4 25 9 44 12 41 2 -2 1 -25 -2 -51z m1953 48 c-10 -2 -26 -2 -35 0
-10 3 -2 5 17 5 19 0 27 -2 18 -5z m335 0 c-13 -2 -33 -2 -45 0 -13 2 -3 4 22
4 25 0 35 -2 23 -4z m-135 -10 c-32 -2 -84 -2 -115 0 -32 2 -6 3 57 3 63 0 89
-1 58 -3z m332 -47 c0 -7 -365 -122 -460 -146 -117 -29 -121 -29 -114 -19 3 5
13 9 23 9 30 0 200 48 371 105 166 55 180 59 180 51z m2233 -11 c-3 -9 -8 -14
-10 -11 -2 2 -38 -11 -79 -30 -104 -47 -106 -42 -4 10 100 50 101 51 93 31z
m-1150 -2 c-7 -2 -21 -2 -30 0 -10 3 -4 5 12 5 17 0 24 -2 18 -5z m100 -10
c-13 -2 -35 -2 -50 0 -16 2 -5 4 22 4 28 0 40 -2 28 -4z m1496 -98 c0 -15 -38
78 -38 95 0 8 9 -7 19 -35 11 -27 20 -54 19 -60z m-3599 -5 c63 -76 93 -120
87 -126 -3 -3 -11 5 -18 18 -6 12 -43 62 -80 109 -38 48 -69 91 -68 95 0 5 8
-2 17 -16 9 -13 37 -49 62 -80z m-1583 43 c-3 -10 -5 -4 -5 12 0 17 2 24 5 18
2 -7 2 -21 0 -30z m3178 7 c28 -12 37 -18 21 -15 -34 7 -96 33 -81 34 6 1 33
-8 60 -19z m1522 -27 c-44 -85 -187 -234 -267 -278 -24 -13 -2 7 75 70 78 63
143 137 177 202 12 23 24 40 26 38 2 -2 -3 -16 -11 -32z m-1997 15 c0 -3 -9
-27 -20 -53 -11 -26 -18 -50 -16 -54 2 -3 -4 -24 -14 -46 -11 -22 -20 -47 -20
-55 -1 -9 -3 -10 -6 -3 -4 8 -30 3 -89 -17 -46 -15 -114 -33 -152 -39 -37 -6
-83 -15 -101 -20 -44 -13 -76 0 -92 38 -35 86 133 213 331 250 52 9 179 9 179
-1z m332 1 c207 -42 458 -162 493 -235 13 -29 15 -42 6 -60 -10 -22 -16 -24
-93 -24 -163 1 -407 47 -524 100 -52 23 -64 34 -82 72 -25 51 -27 73 -8 107
27 49 97 63 208 40z m1508 -8 c-8 -5 -26 -11 -40 -15 -21 -5 -20 -3 5 9 32 15
60 20 35 6z m-1205 -23 c49 -13 83 -24 75 -26 -8 -1 -53 9 -100 22 -108 31
-93 33 25 4z m-3348 -95 c-2 -21 -4 -4 -4 37 0 41 2 58 4 38 2 -21 2 -55 0
-75z m1530 85 c-3 -8 -6 -5 -6 6 -1 11 2 17 5 13 3 -3 4 -12 1 -19z m1233 7
c0 -7 -64 -64 -68 -60 -4 4 51 62 61 64 4 0 7 -1 7 -4z m1695 -10 c-16 -8 -37
-14 -45 -14 -8 0 1 7 20 14 46 18 64 17 25 0z m831 -202 c-4 -5 -96 180 -96
193 0 5 23 -36 50 -90 28 -55 48 -101 46 -103z m-1803 180 c-7 -2 -21 -2 -30
0 -10 3 -4 5 12 5 17 0 24 -2 18 -5z m857 -13 c-30 -11 -64 -19 -75 -19 -22 1
91 37 115 37 8 0 -10 -8 -40 -18z m-2803 -22 c-3 -7 -5 -2 -5 12 0 14 2 19 5
13 2 -7 2 -19 0 -25z m2006 25 c-7 -2 -21 -2 -30 0 -10 3 -4 5 12 5 17 0 24
-2 18 -5z m50 -10 c-7 -2 -19 -2 -25 0 -7 3 -2 5 12 5 14 0 19 -2 13 -5z m132
-18 c46 -7 65 -13 45 -13 -19 -1 -64 5 -100 12 -84 18 -48 18 55 1z m508 -2
c-7 -2 -21 -2 -30 0 -10 3 -4 5 12 5 17 0 24 -2 18 -5z m-65 -10 c-10 -2 -26
-2 -35 0 -10 3 -2 5 17 5 19 0 27 -2 18 -5z m-2621 -40 c-3 -10 -5 -4 -5 12 0
17 2 24 5 18 2 -7 2 -21 0 -30z m2561 32 c-7 -7 -289 -7 -296 -1 -3 4 64 6
148 6 84 0 151 -2 148 -5z m-2181 -57 c-3 -7 -5 -2 -5 12 0 14 2 19 5 13 2 -7
2 -19 0 -25z m-1913 -28 c4 -25 3 -31 -4 -20 -5 8 -10 26 -10 39 0 32 6 24 14
-19z m2769 -67 c8 -15 25 -37 37 -48 21 -19 40 -20 314 -25 l291 -6 -278 -2
c-239 -2 -284 0 -313 14 -44 21 -73 69 -79 130 l-4 49 9 -42 c5 -23 15 -54 23
-70z m-1226 65 c-3 -7 -5 -2 -5 12 0 14 2 19 5 13 2 -7 2 -19 0 -25z m-494
-55 c-30 -50 -64 -78 -103 -87 -14 -3 -6 3 17 14 29 13 53 34 73 66 34 54 32
72 -2 28 -27 -34 -78 -87 -62 -65 6 9 30 40 55 70 53 64 68 46 22 -26z m646
17 c0 -9 -4 -8 -9 5 -5 11 -9 27 -9 35 0 9 4 8 9 -5 5 -11 9 -27 9 -35z m231
12 c0 -39 31 -95 60 -109 24 -12 24 -13 3 -13 -14 0 -29 12 -42 34 -22 35 -45
130 -30 120 5 -3 9 -17 9 -32z m2949 16 c-1 -16 -3 -18 -6 -6 -4 15 -8 15 -41
-4 -41 -24 -37 -15 5 13 37 23 43 23 42 -3z m-2273 -64 c-8 -27 -15 -43 -15
-35 -1 18 21 92 26 87 2 -2 -2 -26 -11 -52z m-2449 -69 c44 0 79 -3 76 -7 -2
-5 -37 -8 -77 -8 -79 0 -96 10 -130 77 -27 54 -18 50 17 -7 l32 -55 82 0z
m3995 44 l-7 -54 -153 0 c-83 0 -152 3 -152 6 0 6 61 27 255 87 33 11 61 18
63 17 1 -1 -1 -26 -6 -56z m628 51 c-8 -5 -19 -10 -25 -10 -5 0 -3 5 5 10 8 5
20 10 25 10 6 0 3 -5 -5 -10z m82 -22 c-8 -8 -9 -4 -5 13 4 13 8 18 11 10 2
-7 -1 -18 -6 -23z m457 -28 c17 -27 27 -50 23 -50 -7 0 -65 100 -58 100 2 0
18 -22 35 -50z m-3752 18 c-3 -8 -6 -5 -6 6 -1 11 2 17 5 13 3 -3 4 -12 1 -19z
m3040 -14 c-3 -3 -12 -4 -19 -1 -8 3 -5 6 6 6 11 1 17 -2 13 -5z m-69 -11
c-10 -2 -26 -2 -35 0 -10 3 -2 5 17 5 19 0 27 -2 18 -5z m-2923 -36 c19 -5 19
-5 0 -6 -22 -1 -45 16 -45 34 0 5 6 3 13 -6 7 -9 21 -19 32 -22z m2858 26 c-7
-2 -21 -2 -30 0 -10 3 -4 5 12 5 17 0 24 -2 18 -5z m357 -8 c-7 -8 -17 -15
-23 -15 -6 0 -2 7 9 15 25 19 30 19 14 0z m-3110 -10 c0 -11 -11 -15 -42 -13
l-43 1 38 4 c20 2 37 8 37 14 0 5 2 9 5 9 3 0 5 -7 5 -15z m-1320 -21 c0 -2
-9 -4 -20 -4 -11 0 -20 4 -20 9 0 5 9 7 20 4 11 -3 20 -7 20 -9z m1773 9 c-24
-2 -62 -2 -85 0 -24 2 -5 4 42 4 47 0 66 -2 43 -4z m80 0 c-7 -2 -19 -2 -25 0
-7 3 -2 5 12 5 14 0 19 -2 13 -5z m50 0 c-7 -2 -19 -2 -25 0 -7 3 -2 5 12 5
14 0 19 -2 13 -5z m195 0 c-10 -2 -28 -2 -40 0 -13 2 -5 4 17 4 22 1 32 -1 23
-4z m1040 0 c-21 -2 -57 -2 -80 0 -24 2 -7 4 37 4 44 0 63 -2 43 -4z m175 0
c-23 -2 -64 -2 -90 0 -26 2 -7 3 42 3 50 0 71 -1 48 -3z m525 0 c-16 -2 -40
-2 -55 0 -16 2 -3 4 27 4 30 0 43 -2 28 -4z m65 0 c-7 -2 -19 -2 -25 0 -7 3
-2 5 12 5 14 0 19 -2 13 -5z m54 1 c-3 -3 -12 -4 -19 -1 -8 3 -5 6 6 6 11 1
17 -2 13 -5z m40 0 c-3 -3 -12 -4 -19 -1 -8 3 -5 6 6 6 11 1 17 -2 13 -5z
m136 -1 c-13 -2 -35 -2 -50 0 -16 2 -5 4 22 4 28 0 40 -2 28 -4z m125 0 c-10
-2 -26 -2 -35 0 -10 3 -2 5 17 5 19 0 27 -2 18 -5z m-4211 -9 c-3 -3 -12 -4
-19 -1 -8 3 -5 6 6 6 11 1 17 -2 13 -5z m3162 -302 l64 -21 29 20 28 20 0
-190 0 -190 -61 35 c-100 59 -162 77 -265 78 -82 1 -96 -2 -149 -29 -71 -37
-127 -111 -150 -200 -22 -81 -31 -293 -16 -378 27 -156 95 -258 199 -297 114
-44 262 -15 390 77 26 18 49 33 52 33 3 0 4 -82 3 -182 l-2 -183 -78 -23
c-106 -32 -315 -41 -423 -18 -103 22 -223 82 -293 145 -75 70 -130 178 -158
316 -29 138 -23 428 10 550 64 238 221 404 425 451 91 20 312 13 395 -14z
m-3909 10 c0 -2 -13 -22 -28 -45 -55 -83 -56 -88 -60 -324 l-4 -223 186 0 186
0 0 190 c0 217 -8 266 -56 345 -19 32 -34 58 -34 59 0 0 110 1 244 1 l243 0
-23 -31 c-13 -16 -34 -52 -46 -80 l-23 -49 0 -575 c0 -574 0 -575 22 -620 13
-25 34 -57 48 -72 l26 -28 -242 0 -241 0 22 33 c54 80 55 87 58 340 l3 237
-185 0 -186 0 0 -218 c0 -244 8 -288 60 -353 l31 -39 -240 0 -241 0 29 45 c52
82 52 87 49 690 l-3 560 -29 62 c-16 35 -35 68 -42 74 -8 6 -14 14 -14 18 0 3
110 6 245 6 135 0 245 -1 245 -3z m1700 -185 l0 -188 -33 25 c-18 14 -60 38
-92 53 -56 26 -70 28 -213 31 l-153 4 3 -164 3 -163 53 -3 c83 -5 226 15 273
37 24 12 43 21 43 21 1 0 0 -83 -2 -185 -2 -102 -5 -185 -7 -185 -2 0 -27 12
-57 27 -48 25 -65 28 -179 31 l-125 4 -1 -171 0 -171 131 0 c176 0 240 19 346
101 l35 27 0 -199 0 -199 -453 0 -453 0 24 33 c66 87 62 43 62 682 l0 580 -29
62 c-16 35 -35 68 -42 74 -8 6 -14 14 -14 18 0 3 198 6 440 6 l440 0 0 -188z
m980 155 c82 -27 131 -61 168 -115 43 -62 64 -131 70 -227 10 -193 -54 -324
-202 -411 -20 -12 -36 -22 -36 -23 0 -5 220 -458 248 -513 15 -28 44 -70 65
-92 l38 -41 -204 0 -203 0 -16 68 c-9 37 -60 170 -114 295 -88 207 -99 228
-118 223 -12 -3 -41 -6 -64 -6 l-44 0 4 -222 c5 -240 9 -262 64 -327 l26 -31
-237 0 -237 0 16 23 c9 12 27 42 39 67 22 45 22 46 22 625 0 629 2 604 -57
693 -15 24 -28 44 -28 45 0 1 165 0 367 -4 343 -5 372 -7 433 -27z m1985 12
c-9 -9 -28 -39 -43 -68 l-27 -51 0 -466 0 -466 30 -49 c35 -56 88 -83 169 -83
109 -2 176 45 194 136 5 28 8 224 7 473 -3 466 -3 462 -67 559 -21 31 -24 42
-13 37 9 -3 120 -6 246 -6 l229 0 -31 -50 c-16 -27 -35 -64 -42 -82 -7 -22
-13 -198 -16 -533 l-6 -500 -27 -57 c-88 -188 -305 -282 -576 -249 -207 25
-333 108 -394 258 -22 57 -23 64 -28 558 -6 538 -5 528 -61 613 -16 24 -29 44
-29 45 0 1 113 1 250 -1 228 -2 249 -4 235 -18z m1385 16 c0 -3 -12 -23 -26
-44 -53 -77 -54 -89 -54 -630 l-1 -501 158 1 c147 0 162 2 221 27 35 14 86 42
113 62 l49 35 0 -200 0 -200 -480 0 -481 0 22 23 c12 12 33 47 48 77 l26 55 0
570 0 570 -29 62 c-16 35 -35 68 -42 74 -8 6 -14 14 -14 18 0 3 110 6 245 6
135 0 245 -2 245 -5z m1492 -189 l-3 -189 -62 42 c-94 63 -146 76 -306 76
l-136 0 3 -166 3 -167 127 5 c95 4 142 11 187 27 32 11 59 21 60 21 0 0 -1
-81 -3 -179 l-3 -179 -57 26 c-50 24 -72 27 -184 30 l-128 4 0 -172 0 -172
153 4 c170 4 205 14 302 87 l50 38 0 -199 0 -198 -453 0 -452 0 35 51 c19 28
39 67 45 87 14 51 14 1085 -1 1151 -6 27 -26 75 -45 106 -19 32 -34 58 -34 59
0 0 204 0 452 -2 l453 -2 -3 -189z m-2266 -1507 c-3 -9 -6 -58 -6 -111 l0 -94
-26 20 c-32 25 -114 51 -161 51 -52 0 -96 -23 -125 -66 -38 -55 -51 -120 -46
-223 3 -76 8 -95 32 -131 32 -49 76 -70 144 -70 63 0 108 15 156 53 39 30 39
30 33 6 -4 -13 -7 -61 -7 -105 l0 -81 -47 -14 c-27 -8 -89 -14 -143 -13 -211
2 -326 103 -349 306 -24 213 42 379 176 444 52 26 68 29 158 29 55 0 117 -3
138 -7 26 -5 41 -3 50 7 16 19 31 19 23 -1z m-3061 -18 c83 -36 124 -105 125
-209 0 -82 -21 -129 -81 -181 l-42 -36 57 -117 c32 -65 71 -139 87 -166 16
-26 29 -48 29 -50 0 -1 -46 -1 -103 1 l-103 3 -65 142 -65 142 -38 3 -38 3 4
-113 c2 -83 8 -122 21 -147 9 -19 17 -35 17 -35 0 -1 -59 0 -130 2 l-131 3 23
37 c23 37 23 41 23 347 0 304 0 311 -22 345 -13 19 -23 37 -23 40 0 8 434 -5
455 -14z m827 -9 c104 -61 157 -161 166 -314 9 -165 -31 -287 -119 -367 -62
-55 -121 -76 -218 -76 -92 0 -132 10 -194 50 -94 60 -140 170 -140 340 0 201
75 332 220 386 26 10 70 13 138 11 88 -2 106 -6 147 -30z m828 26 c0 -1 -10
-19 -22 -40 -22 -36 -23 -51 -28 -308 -6 -302 -9 -318 -79 -376 -56 -46 -128
-63 -241 -56 -149 10 -140 3 -140 112 l0 94 46 -26 c53 -30 158 -43 193 -23
44 23 51 63 51 303 0 219 -1 225 -25 273 -14 27 -25 49 -25 49 0 0 61 0 135 0
74 0 135 -1 135 -2z m670 -99 c0 -102 -1 -106 -18 -91 -37 33 -90 47 -182 47
l-90 0 0 -81 0 -82 89 6 c48 4 96 9 105 13 14 5 16 -5 16 -85 0 -90 -5 -102
-28 -79 -6 6 -50 14 -97 16 l-85 5 0 -103 0 -103 95 5 c74 4 106 11 145 30
l50 25 0 -99 0 -98 -262 0 c-250 0 -260 1 -245 18 43 47 47 79 47 375 0 283 0
284 -25 333 -14 27 -25 49 -25 49 0 0 115 2 255 4 l255 3 0 -108z m1461 -1
c-1 -54 -4 -99 -6 -101 -2 -2 -17 5 -33 17 -28 20 -97 40 -137 41 -20 0 -20
-6 -17 -266 3 -256 6 -284 36 -354 5 -13 -12 -15 -127 -12 l-134 3 24 46 c22
45 23 53 23 315 0 301 7 277 -79 257 -24 -5 -57 -19 -72 -30 l-28 -19 -3 101
c-2 55 -2 101 -1 102 1 1 126 1 279 0 l277 -2 -2 -98z m-4538 77 c90 -34 128
-93 135 -211 8 -131 -36 -221 -133 -272 -30 -15 -64 -22 -132 -25 l-93 -4 0
-72 c0 -56 5 -83 23 -119 l24 -46 -134 -3 c-73 -2 -133 -3 -133 -3 0 0 11 22
25 49 25 49 25 50 25 341 0 287 0 292 -24 338 l-23 47 193 0 c169 0 200 -3
247 -20z"/>
<path d="M4876 9439 c-45 -11 -166 -68 -166 -79 0 -4 24 -1 53 7 28 8 100 17
158 20 184 9 293 -22 353 -102 16 -20 30 -34 33 -31 7 7 -82 120 -115 146 -49
39 -90 50 -186 49 -50 -1 -109 -5 -130 -10z"/>
<path d="M5265 8724 c-27 -8 -60 -18 -72 -21 -48 -12 -20 -23 58 -23 90 0 204
-23 264 -52 l40 -20 -40 41 c-47 49 -126 91 -169 90 -17 0 -53 -7 -81 -15z"/>
<path d="M4306 8254 c-5 -14 -4 -15 9 -4 17 14 19 20 6 20 -5 0 -12 -7 -15
-16z"/>
<path d="M6360 5682 c69 -26 99 -40 235 -117 49 -28 50 -28 30 -4 -67 82 -131
125 -200 134 -146 17 -146 17 -65 -13z"/>
<path d="M5600 5659 c-19 -4 -84 -17 -144 -28 -59 -12 -131 -32 -160 -45 l-51
-25 50 5 c76 9 170 32 273 66 110 36 126 49 32 27z m-137 -46 c-7 -2 -19 -2
-25 0 -7 3 -2 5 12 5 14 0 19 -2 13 -5z"/>
<path d="M4530 5142 c54 -38 82 -67 102 -106 l22 -41 9 44 c5 24 5 47 0 52 -4
4 -42 22 -83 38 -42 17 -64 23 -50 13z m91 -49 c13 -16 12 -17 -3 -4 -17 13
-22 21 -14 21 2 0 10 -8 17 -17z"/>
<path d="M8215 4068 c-4 -62 -13 -151 -21 -197 -8 -46 -13 -86 -11 -88 3 -2
43 -3 90 -1 l86 3 -64 194 c-36 107 -66 196 -69 198 -2 2 -7 -47 -11 -109z"/>
<path d="M3842 3049 l3 -194 69 -3 c99 -4 169 13 210 51 70 67 75 206 8 282
-32 36 -58 44 -182 51 l-110 7 2 -194z"/>
<path d="M3550 1536 c0 -53 -1 -99 -2 -103 -5 -15 100 -14 136 1 58 24 76 111
34 161 -20 22 -34 27 -95 32 l-73 6 0 -97z"/>
<path d="M4369 1607 c-19 -12 -45 -44 -58 -71 -21 -42 -25 -65 -25 -145 -1
-53 5 -115 12 -138 49 -162 240 -160 288 4 23 81 16 223 -14 285 -42 84 -131
113 -203 65z"/>
<path d="M2810 1500 l0 -120 55 0 c99 0 135 37 135 137 0 36 -6 50 -29 74 -27
26 -36 29 -95 29 l-66 0 0 -120z"/>
</g>
</svg>
